<svg width="20" height="18" viewBox="0 0 20 18" fill="none" xmlns="http://www.w3.org/2000/svg">
<path d="M0.5 5.40001V5.39993C0.499775 4.08449 1.02846 2.8242 1.96711 1.90262C2.90576 0.98104 4.17553 0.475566 5.49074 0.499926L5.49074 0.500068L5.50266 0.500005C7.07665 0.491646 8.57856 1.15916 9.62709 2.33309L10 2.75059L10.3729 2.33309C11.4214 1.15916 12.9233 0.491646 14.4973 0.500005L14.4973 0.500147L14.5093 0.499926C15.8245 0.475566 17.0942 0.98104 18.0329 1.90262C18.9715 2.8242 19.5002 4.08449 19.5 5.39993V5.40001C19.5 7.87474 18.0242 10.1023 16.0015 12.1578C14.9966 13.179 13.876 14.1385 12.7721 15.0486C12.456 15.3092 12.1401 15.5667 11.8286 15.8205C11.1885 16.3422 10.5671 16.8486 10.0016 17.3353C9.41095 16.8222 8.7593 16.2894 8.08854 15.741C7.80525 15.5094 7.51854 15.2749 7.23158 15.038C6.12755 14.1266 5.00664 13.1682 4.00109 12.1488C1.9772 10.097 0.5 7.87624 0.5 5.40001Z" stroke="#3A89FF"/>
</svg>
